<?xml version="1.0" encoding="UTF-8"?>
<svg width="109px" height="19px" viewBox="0 0 109 19" version="1.1" xmlns="http://www.w3.org/2000/svg" xmlns:xlink="http://www.w3.org/1999/xlink">
    <!-- Generator: Sketch 64 (93537) - https://sketch.com -->
    <title>NOIMAGE</title>
    <desc>Created with Sketch.</desc>
    <g id="SandBox" stroke="none" stroke-width="1" fill="none" fill-rule="evenodd">
        <g id="Desktop-HD" transform="translate(-512.000000, -333.000000)" fill-rule="nonzero">
            <g id="NOIMAGE" transform="translate(512.264000, 333.840000)">
                <path d="M2.16,17.16 L2.16,4.152 L12.576,17.16 L14.4,17.16 L14.4,0.144 L12.24,0.144 L12.24,13.392 L1.68,0.12 L0,0.12 L0,17.16 L2.16,17.16 Z M25.392,17.28 C26.544,17.28 27.612,17.044 28.596,16.572 C29.58,16.1 30.428,15.468 31.14,14.676 C31.852,13.884 32.412,12.968 32.82,11.928 C33.228,10.888 33.432,9.8 33.432,8.664 C33.432,7.592 33.24,6.54 32.856,5.508 C32.472,4.476 31.928,3.552 31.224,2.736 C30.52,1.92 29.68,1.26 28.704,0.756 C27.728,0.252 26.64,2.84217094e-14 25.44,2.84217094e-14 C24.288,2.84217094e-14 23.22,0.236 22.236,0.708 C21.252,1.18 20.4,1.816 19.68,2.616 C18.96,3.416 18.396,4.336 17.988,5.376 C17.58,6.416 17.376,7.504 17.376,8.64 C17.376,9.728 17.568,10.792 17.952,11.832 C18.336,12.872 18.88,13.796 19.584,14.604 C20.288,15.412 21.132,16.06 22.116,16.548 C23.1,17.036 24.192,17.28 25.392,17.28 Z M25.416,15.336 C24.536,15.336 23.736,15.152 23.016,14.784 C22.296,14.416 21.68,13.92 21.168,13.296 C20.656,12.672 20.26,11.956 19.98,11.148 C19.7,10.34 19.56,9.504 19.56,8.64 C19.56,7.808 19.696,6.992 19.968,6.192 C20.24,5.392 20.628,4.68 21.132,4.056 C21.636,3.432 22.248,2.928 22.968,2.544 C23.688,2.16 24.504,1.968 25.416,1.968 C26.28,1.968 27.068,2.152 27.78,2.52 C28.492,2.888 29.108,3.38 29.628,3.996 C30.148,4.612 30.548,5.324 30.828,6.132 C31.108,6.94 31.248,7.776 31.248,8.64 C31.248,9.456 31.116,10.264 30.852,11.064 C30.588,11.864 30.204,12.58 29.7,13.212 C29.196,13.844 28.584,14.356 27.864,14.748 C27.144,15.14 26.328,15.336 25.416,15.336 Z" id="NO" fill="#110404"></path>
                <path d="M38.592,17.16 L38.592,0.12 L36.432,0.12 L36.432,17.16 L38.592,17.16 Z M44.832,17.16 L44.832,3.984 L50.52,14.088 L51.744,14.088 L57.408,3.984 L57.408,17.16 L59.568,17.16 L59.568,0.12 L57.312,0.12 L51.12,11.184 L44.952,0.12 L42.672,0.12 L42.672,17.16 L44.832,17.16 Z M64.152,17.16 L66.144,12.168 L73.296,12.168 L75.312,17.16 L77.616,17.16 L70.656,0.12 L68.832,0.12 L61.848,17.16 L64.152,17.16 Z M72.816,10.488 L66.576,10.488 L69.744,2.616 L72.816,10.488 Z M86.736,17.28 C88.688,17.28 90.416,16.472 91.92,14.856 L91.92,14.856 L91.92,17.16 L93.744,17.16 L93.744,8.664 L88.248,8.664 L88.248,10.296 L91.92,10.296 L91.92,12.648 C90.432,14.44 88.76,15.336 86.904,15.336 C86.056,15.336 85.272,15.16 84.552,14.808 C83.832,14.456 83.208,13.972 82.68,13.356 C82.152,12.74 81.736,12.028 81.432,11.22 C81.128,10.412 80.976,9.552 80.976,8.64 C80.976,7.776 81.112,6.94 81.384,6.132 C81.656,5.324 82.04,4.612 82.536,3.996 C83.032,3.38 83.632,2.884 84.336,2.508 C85.04,2.132 85.824,1.944 86.688,1.944 C87.744,1.944 88.696,2.184 89.544,2.664 C90.392,3.144 91.072,3.88 91.584,4.872 L91.584,4.872 L93.24,3.72 C92.68,2.616 91.868,1.72 90.804,1.032 C89.74,0.344 88.384,2.84217094e-14 86.736,2.84217094e-14 C85.6,2.84217094e-14 84.544,0.232 83.568,0.696 C82.592,1.16 81.752,1.788 81.048,2.58 C80.344,3.372 79.792,4.284 79.392,5.316 C78.992,6.348 78.792,7.44 78.792,8.592 C78.792,9.696 78.996,10.768 79.404,11.808 C79.812,12.848 80.368,13.772 81.072,14.58 C81.776,15.388 82.612,16.04 83.58,16.536 C84.548,17.032 85.6,17.28 86.736,17.28 Z M108.6,17.16 L108.6,15.24 L99.192,15.24 L99.192,9.36 L107.184,9.36 L107.184,7.56 L99.192,7.56 L99.192,2.04 L108.384,2.04 L108.384,0.12 L97.032,0.12 L97.032,17.16 L108.6,17.16 Z" id="IMAGE" fill="#999999"></path>
            </g>
        </g>
    </g>
</svg>